<?xml version="1.0" encoding="UTF-8"?>
<svg version="1.1" xmlns="http://www.w3.org/2000/svg" width="614" height="614">
<path d="M0 0 C1.99022049 -0.00373923 3.98043951 -0.00834184 5.97065622 -0.01373065 C11.42608057 -0.02594225 16.88144352 -0.02570234 22.33687842 -0.02334189 C28.22594304 -0.02293326 34.1149881 -0.03397728 40.00404358 -0.04345703 C51.53678448 -0.06005787 63.06950494 -0.06556616 74.6022568 -0.06668179 C83.97832338 -0.06760189 93.35438334 -0.07172386 102.73044777 -0.07808304 C105.43216222 -0.07987821 108.13387668 -0.08165784 110.83559114 -0.08343279 C111.50730152 -0.08387489 112.1790119 -0.08431699 112.87107715 -0.08477248 C131.75808913 -0.09707617 150.64509882 -0.10497409 169.53211498 -0.10408592 C170.59963959 -0.10403919 170.59963959 -0.10403919 171.68873034 -0.10399151 C175.29559594 -0.1038253 178.90246154 -0.10362722 182.50932714 -0.10342209 C183.22562564 -0.1033822 183.94192414 -0.10334231 184.67992865 -0.10330121 C186.1284582 -0.10322034 187.57698775 -0.10313674 189.02551729 -0.10305043 C211.55693908 -0.10182521 234.08830064 -0.11683467 256.6197052 -0.14419556 C281.95124419 -0.17494432 307.28274363 -0.19212637 332.61430246 -0.19026911 C335.31758869 -0.19011986 338.02087491 -0.19002244 340.72416115 -0.18996048 C341.72253915 -0.18992552 341.72253915 -0.18992552 342.7410864 -0.18988985 C352.7713837 -0.18983221 362.80163148 -0.20050815 372.8319149 -0.21662521 C384.2461282 -0.23484874 395.66024279 -0.23917463 407.07446434 -0.22560637 C412.89505212 -0.21908276 418.71545059 -0.21893784 424.53602028 -0.23631287 C429.87129114 -0.25207505 435.20622307 -0.24914763 440.54148582 -0.2317446 C442.46472658 -0.22868166 444.38799283 -0.23228025 446.3112035 -0.24346475 C460.74659878 -0.32180992 473.87859737 1.12826179 486.87434387 8.01742554 C487.53748596 8.35959106 488.20062805 8.70175659 488.88386536 9.05429077 C494.67546895 12.13933993 499.71658135 15.83644197 504.56184387 20.26742554 C505.1934845 20.81914429 505.82512512 21.37086304 506.47590637 21.93930054 C518.69611259 33.24433712 526.31295739 50.98958595 528.56184387 67.26742554 C528.65456182 70.00531826 528.70148372 72.71722939 528.69606495 75.45456409 C528.69841718 76.26681339 528.70076941 77.07906268 528.70319292 77.91592559 C528.70986031 80.64303512 528.70942538 83.37009676 528.70901489 86.09721375 C528.71231494 88.07018121 528.7160408 90.043148 528.72015637 92.01611394 C528.7301687 97.44249385 528.73389194 102.8688627 528.73654568 108.29525054 C528.74045106 114.14624541 528.7500293 119.99723154 528.75875854 125.84822083 C528.77758336 139.31356399 528.78777859 152.77890705 528.79621923 166.24426021 C528.80042874 172.90251235 528.80565038 179.56076362 528.81090375 186.21901501 C528.82879413 209.02337209 528.84378816 231.82772943 528.85122395 254.63209248 C528.8516987 256.06337138 528.85217459 257.49465029 528.85265161 258.9259292 C528.85300617 259.99058038 528.85300617 259.99058038 528.8533679 261.07673967 C528.85456906 264.67260957 528.85578452 268.26847947 528.85700989 271.86434937 C528.85725004 272.57795364 528.85749019 273.29155791 528.85773761 274.02678655 C528.86562555 297.14875513 528.88904682 320.27067232 528.92156583 343.39261848 C528.95590533 367.85378905 528.97557897 392.31492959 528.97886819 416.77612466 C528.9792857 419.4643432 528.97976526 422.15256173 528.98029137 424.84078026 C528.98041456 425.5026673 528.98053775 426.16455433 528.98066467 426.84649855 C528.98284788 436.81748332 528.99619708 446.78839832 529.01532936 456.75936317 C529.03706214 468.11176095 529.04507408 479.46406488 529.03536258 490.81648109 C529.03082528 496.60488887 529.03267111 502.39310313 529.05212402 508.18148422 C529.0698091 513.48987418 529.0687146 518.79793021 529.05322673 524.10632398 C529.05085876 526.01760946 529.05513166 527.9289184 529.06705538 529.84016816 C529.15325297 544.58043047 528.02409561 559.48734789 520.81184387 572.70492554 C520.46750305 573.36049438 520.12316223 574.01606323 519.76838684 574.6914978 C510.09518668 592.54886754 494.10606538 604.73913923 475.04621887 611.25961304 C467.94779706 613.31274401 461.36702625 614.56549556 453.96874046 614.52469444 C453.1490537 614.52820052 452.32936693 614.53170659 451.48484117 614.53531891 C448.75046069 614.54458962 446.01629522 614.53972082 443.28190613 614.53485107 C441.29667349 614.53858952 439.31144232 614.54319182 437.32621348 614.54858172 C431.87993134 614.56080319 426.43371066 614.56055224 420.98741794 614.55819297 C415.10992409 614.55778458 409.23244989 614.56882606 403.35496521 614.57830811 C391.84280855 614.5949147 380.33067237 614.60041751 368.81850474 614.60153286 C359.45909997 614.60245276 350.09970183 614.60657365 340.74029922 614.61293411 C338.04393884 614.61472927 335.34757845 614.6165089 332.65121806 614.61828387 C331.64566091 614.61894701 331.64566091 614.61894701 330.61978949 614.61962355 C311.76814548 614.63192874 292.91650377 614.63982502 274.06485558 614.638937 C273.35438935 614.63890584 272.64392313 614.63887468 271.91192762 614.63884258 C268.31118775 614.63867637 264.71044787 614.63847829 261.109708 614.63827316 C260.3946201 614.63823327 259.6795322 614.63819338 258.94277496 614.63815228 C257.49669284 614.63807141 256.05061072 614.63798781 254.60452859 614.6379015 C232.11354923 614.63667641 209.6226302 614.65168275 187.13166809 614.67904663 C161.84811303 614.70979566 136.56459761 614.7269774 111.28102267 614.72512019 C108.58277615 614.72497093 105.88452963 614.72487351 103.18628311 614.72481155 C102.52193443 614.72478825 101.85758575 614.72476494 101.17310528 614.72474092 C91.16109488 614.72468328 81.14913977 614.7353597 71.13714218 614.75147629 C59.74303338 614.7697003 48.34902346 614.77402536 36.95490639 614.76045744 C31.14445177 614.75393388 25.3341868 614.7537887 19.52375031 614.77116394 C14.19769146 614.78692651 8.87197213 614.7839983 3.5459214 614.76659568 C1.62601547 614.76353281 -0.29391601 614.76713107 -2.2137918 614.77831583 C-25.28106691 614.90372852 -45.98480555 608.63510232 -63.25065613 592.54086304 C-81.27600362 573.80737689 -86.0760121 551.36707963 -85.9460907 526.23545837 C-85.95070988 524.26608046 -85.95706957 522.296706 -85.96499968 520.32733864 C-85.98157653 514.96185236 -85.97349998 509.59665354 -85.9610548 504.23116672 C-85.95195855 498.4266853 -85.96599667 492.62225135 -85.97697449 486.81777954 C-85.99471598 475.46476817 -85.99093912 464.11186287 -85.97932392 452.75884742 C-85.9702722 443.52741898 -85.96907312 434.29602016 -85.97341919 425.06458855 C-85.97403212 423.74824158 -85.97464505 422.43189461 -85.97527656 421.07565833 C-85.97622838 419.07165446 -85.97719324 417.0676506 -85.97818412 415.06364675 C-85.99040201 390.05518089 -85.97935534 365.04677268 -85.95779654 340.03831572 C-85.93881834 317.85480776 -85.94051285 295.67139168 -85.9596405 273.48788452 C-85.98109334 248.52468948 -85.98953308 223.56154534 -85.97719145 198.59834236 C-85.97590872 195.93358768 -85.97465984 193.26883299 -85.97341919 190.60407829 C-85.97280209 189.2931453 -85.97218499 187.98221232 -85.97154918 186.63155409 C-85.96810334 177.41749423 -85.97390815 168.20346709 -85.9833374 158.98941231 C-85.99458554 147.7514786 -85.99145832 136.51365657 -85.97021443 125.27573556 C-85.95974159 119.54789634 -85.95551768 113.82024294 -85.96881104 108.09240532 C-85.98081917 102.83866166 -85.97403481 97.58527431 -85.95290083 92.33156251 C-85.94847018 90.44145689 -85.95062027 88.55132053 -85.96040398 86.66123504 C-86.0327285 71.51506275 -84.73361605 56.07325232 -77.75065613 42.32992554 C-77.23801208 41.28675171 -77.23801208 41.28675171 -76.7150116 40.22250366 C-73.45303318 33.84339227 -69.41553075 28.428221 -64.43815613 23.26742554 C-63.67889832 22.47980835 -62.9196405 21.69219116 -62.13737488 20.88070679 C-53.07187667 12.14162586 -41.60355129 5.58824962 -29.43815613 2.26742554 C-28.8486392 2.10072432 -28.25912228 1.9340231 -27.65174121 1.76227033 C-18.56129633 -0.43778803 -9.28848959 -0.01653407 0 0 Z M107.56184387 110.26742554 C105.46099384 114.4691256 103.97937649 117.72970936 102.70271301 122.11166382 C102.36623749 123.25599884 102.02976196 124.40033386 101.68309021 125.5793457 C101.14547562 127.43974991 101.14547562 127.43974991 100.59700012 129.33773804 C100.20895103 130.66498509 99.82037727 131.99207883 99.43132019 133.31903076 C98.59593918 136.17221328 97.76412674 139.0264027 96.93510437 141.88143921 C95.60093744 146.47595531 94.25886504 151.06813948 92.91560364 155.66000366 C91.27816268 161.25926581 89.64249463 166.85903948 88.00918102 172.45950699 C85.26587595 181.86534306 82.50930591 191.26719992 79.74153137 200.66586304 C79.54697609 201.32656359 79.35242081 201.98726414 79.15196991 202.66798592 C78.36346525 205.345541 77.5748699 208.02306935 76.786129 210.70055485 C74.53943276 218.32753059 72.29659414 225.95563983 70.05403137 233.58383179 C69.84191765 234.3053285 69.62980392 235.02682522 69.41126251 235.77018547 C68.04475848 240.41836988 66.67840579 245.06659876 65.31213379 249.71485138 C64.79828087 251.46303918 64.28441508 253.2112232 63.77053833 254.95940399 C60.27215992 266.86071946 56.77483044 278.76234233 53.27948475 290.66454887 C51.83265083 295.59123463 50.3855396 300.51783836 48.93754578 305.44418335 C45.96224868 315.56762864 42.99311923 325.69283079 40.0349741 335.82130241 C38.31537233 341.70476242 36.58255084 347.58418877 34.84279346 353.46171856 C33.63533924 357.5476575 32.43600959 361.63595441 31.23826408 365.72474861 C30.66908813 367.66140498 30.09658611 369.59708761 29.52041817 371.53167534 C22.08230555 396.52242238 19.22415695 420.14175062 31.56184387 444.26742554 C42.92404777 462.84847327 58.69982945 475.15809652 79.95637512 480.68930054 C85.63360764 481.9490163 91.06800392 482.41817595 96.87614441 482.42564392 C98.10889994 482.43305089 98.10889994 482.43305089 99.36655962 482.44060749 C102.11182819 482.45592758 104.85707347 482.46432819 107.60237122 482.4727478 C109.57367659 482.48233064 111.54497993 482.49234096 113.51628113 482.50274658 C118.8628497 482.5297577 124.20942706 482.5507878 129.55602598 482.57074857 C135.14543474 482.59263152 140.73481651 482.62000891 146.32420349 482.64680481 C156.90627993 482.69670046 167.48837137 482.7416509 178.07047713 482.78482717 C190.11877247 482.83422627 202.16704072 482.88913449 214.21530986 482.94450676 C238.99746259 483.05827881 263.77964131 483.16512826 288.56184387 483.26742554 C289.59591472 487.75970053 289.32021916 491.5632195 288.62434387 496.07992554 C288.52444153 496.77279663 288.42453918 497.46566772 288.3216095 498.17953491 C288.07582799 499.87659767 287.81986236 501.57218013 287.56184387 503.26742554 C290.5396805 502.64991322 292.77639711 501.70472162 295.36262512 500.11508179 C296.08458069 499.67357788 296.80653625 499.23207397 297.55036926 498.77719116 C298.70073669 498.06079468 298.70073669 498.06079468 299.87434387 497.32992554 C300.67541565 496.83557007 301.47648743 496.3412146 302.30183411 495.83187866 C307.91319788 492.34792756 313.44359105 488.75588542 318.91511536 485.05673218 C322.32881099 482.74893983 325.76446967 480.48502714 329.23762512 478.26742554 C330.02000549 477.76726929 330.80238586 477.26711304 331.60847473 476.75180054 C333.13415483 475.77915348 334.66223508 474.81025874 336.19294739 473.84555054 C339.9724077 471.64183059 339.9724077 471.64183059 342.56184387 468.26742554 C342.02631897 467.92711304 341.49079407 467.58680054 340.93904114 467.23617554 C329.63736225 460.05277351 318.34344435 452.85731536 307.06184387 445.64242554 C306.00682678 444.96824585 304.95180969 444.29406616 303.86482239 443.59945679 C302.86765198 442.96137085 301.87048157 442.32328491 300.84309387 441.66586304 C299.917547 441.07386108 298.99200012 440.48185913 298.03840637 439.87191772 C295.99200699 438.5461156 293.97568131 437.18973518 291.96809387 435.80648804 C289.75709591 434.08781859 289.75709591 434.08781859 287.56184387 434.26742554 C287.70621887 435.28062866 287.85059387 436.29383179 287.99934387 437.33773804 C288.18705678 438.68927098 288.37454483 440.04083517 288.56184387 441.39242554 C288.70492981 442.39015991 288.70492981 442.39015991 288.85090637 443.40805054 C289.39884388 447.40016666 289.60173489 451.24341949 289.56184387 455.26742554 C263.72690881 455.36101365 237.89199928 455.43147564 212.05692863 455.47467422 C200.06029964 455.49526837 188.0637762 455.52332871 176.06721497 455.56918335 C165.60670051 455.60914755 155.14626252 455.63488121 144.68567383 455.64377952 C139.15076928 455.64897803 133.61608345 455.66113064 128.08124924 455.69034576 C122.86263208 455.71766639 117.64432199 455.72583709 112.42564011 455.71985626 C110.51901069 455.72094909 108.6123701 455.72880309 106.70580292 455.74424744 C91.22342103 455.86342282 77.91420857 454.66473971 65.56184387 444.26742554 C64.92762512 443.76726929 64.29340637 443.26711304 63.63996887 442.75180054 C55.14388601 435.30832971 50.46680315 423.30792871 49.56184387 412.26742554 C49.48063293 411.4334021 49.399422 410.59937866 49.31575012 409.74008179 C48.51727481 393.64959452 55.75443406 376.41418665 60.29637146 361.21035767 C61.47471477 357.26564605 62.64756996 353.31934162 63.81843567 349.37240601 C64.02113162 348.68917833 64.22382757 348.00595066 64.43266582 347.30201912 C64.84896911 345.89875831 65.26525379 344.49549198 65.68152046 343.09222031 C66.32163739 340.93508599 66.96236557 338.77813398 67.60321045 336.62121582 C70.72410369 326.11369959 73.82003622 315.59901359 76.90168762 305.07992554 C77.23690839 303.93570727 77.23690839 303.93570727 77.57890129 302.76837349 C78.7181186 298.87940839 79.85695009 294.99033042 80.99559021 291.10119629 C88.42399395 265.72966865 95.88824058 240.36903851 103.39680481 215.02111816 C112.08279749 185.72324954 112.08279749 185.72324954 120.66551208 156.39501953 C121.13111688 154.79221406 121.59754238 153.18964673 122.06486511 151.58734131 C122.677387 149.48542201 123.28636489 147.38251665 123.89387512 145.27914429 C124.38464539 143.58471191 124.38464539 143.58471191 124.8853302 141.85604858 C125.64612689 139.39085087 125.64612689 139.39085087 125.56184387 137.26742554 C140.08184387 137.26742554 154.60184387 137.26742554 169.56184387 137.26742554 C167.31206567 148.51631655 167.31206567 148.51631655 165.79695129 153.48764038 C165.45812927 154.60799683 165.11930725 155.72835327 164.7702179 156.88265991 C164.40625916 158.06924194 164.04230042 159.25582397 163.66731262 160.47836304 C163.27977804 161.754431 162.89270457 163.03063909 162.50605774 164.30697632 C161.68554072 167.01274294 160.86229819 169.71765785 160.03678894 172.42190552 C158.06674558 178.87634014 156.11133399 185.33521529 154.15438271 191.79362869 C153.49970292 193.95374085 152.84448153 196.1136882 152.18920898 198.27362061 C148.82120961 209.38063619 145.51617994 220.50526525 142.24934387 231.64242554 C138.33291575 244.98377242 134.35336549 258.30523731 130.33137512 271.61508179 C130.09834057 272.38630119 129.86530602 273.1575206 129.62520981 273.95211029 C128.66674339 277.12387161 127.70812254 280.29558623 126.74939919 283.4672699 C119.64960503 306.95517218 112.55359286 330.44174252 105.74934387 354.01742554 C105.48049377 354.94699066 105.21164368 355.87655579 104.93464661 356.83428955 C104.19677723 359.38929776 103.46231931 361.94525032 102.72981262 364.50180054 C102.5205162 365.22837357 102.31121979 365.95494659 102.09558105 366.70353699 C98.82357553 378.20067459 98.71643765 387.1161667 103.56184387 398.26742554 C109.12648959 406.82165518 116.61904187 411.44945266 126.40209901 413.83905065 C129.65398576 414.48404657 132.80516629 414.52278428 136.1156311 414.52812195 C136.83184952 414.5319475 137.54806794 414.53577304 138.28598994 414.53971452 C140.66293013 414.54995348 143.03962461 414.54606972 145.4165802 414.54208374 C147.13075481 414.54643562 148.84492748 414.55162036 150.55909729 414.55757141 C155.20233522 414.57093069 159.84549158 414.57154282 164.48874497 414.56900811 C168.37938608 414.56793495 172.27001092 414.57283128 176.16064852 414.57761353 C185.35518379 414.58870105 194.54967821 414.5891523 203.74421692 414.58309937 C213.18597908 414.57707833 222.62759151 414.5893246 232.06932813 414.61066943 C240.20645901 414.62837933 248.34354268 414.63427156 256.48069209 414.63103169 C261.32644162 414.62923141 266.17208469 414.63172676 271.01781654 414.64574623 C275.58731836 414.65847129 280.15659053 414.65624433 284.72608948 414.64333534 C286.38711315 414.64100043 288.04815371 414.64359077 289.70915794 414.65195847 C304.48736704 414.72093233 319.79307365 413.62337102 333.81184387 408.57992554 C334.54451477 408.32283813 335.27718567 408.06575073 336.03205872 407.8008728 C359.87697591 399.10864969 380.10890355 382.17330618 391.56184387 359.26742554 C396.05344266 358.84354699 398.16092692 359.9635876 401.79231262 362.54867554 C402.75975403 363.22543335 403.72719543 363.90219116 404.72395325 364.59945679 C405.72233215 365.31488647 406.72071106 366.03031616 407.74934387 366.76742554 C409.7400741 368.17757905 411.73343083 369.58403448 413.72981262 370.98617554 C415.04888611 371.92880249 415.04888611 371.92880249 416.39460754 372.89047241 C418.41524902 374.44618096 418.41524902 374.44618096 420.56184387 374.26742554 C419.10210483 357.09631309 417.52840456 339.93664674 415.90242004 322.78060913 C415.56096548 319.17558309 415.22372389 315.57017442 414.88725948 311.96467972 C414.62451593 309.15754011 414.35865893 306.35070173 414.09193611 303.54393768 C413.90522217 301.57040993 413.72189593 299.5965626 413.53863525 297.62271118 C413.42504166 296.43586731 413.31144806 295.24902344 413.19441223 294.0262146 C413.0960759 292.98306091 412.99773956 291.93990723 412.89642334 290.86514282 C412.63256042 288.1588251 412.63256042 288.1588251 411.56184387 285.26742554 C406.35117905 286.948622 402.19080256 290.10112131 397.74934387 293.20492554 C396.90621643 293.78830688 396.06308899 294.37168823 395.19441223 294.9727478 C393.46699067 296.16810466 391.74083081 297.3652869 390.01594543 298.56430054 C387.19515871 300.52190183 384.36300619 302.46239785 381.52912903 304.40097046 C373.92043166 309.60964165 366.36054678 314.8875652 358.81697083 320.19003296 C355.02999373 322.85034278 351.23807196 325.49904182 347.40168762 328.08773804 C346.78769104 328.50394409 346.17369446 328.92015015 345.54109192 329.34896851 C343.93174815 330.43640593 342.31730599 331.51628754 340.70246887 332.59555054 C339.6428595 333.42312866 339.6428595 333.42312866 338.56184387 334.26742554 C338.56184387 334.92742554 338.56184387 335.58742554 338.56184387 336.26742554 C339.30345764 336.50453247 340.04507141 336.7416394 340.80915833 336.9859314 C344.16428082 338.0587399 347.51931337 339.13182939 350.87434387 340.20492554 C352.04158997 340.57810913 353.20883606 340.95129272 354.41145325 341.33578491 C355.52971497 341.69349976 356.64797668 342.0512146 357.80012512 342.41976929 C358.83177795 342.74968872 359.86343079 343.07960815 360.92634583 343.41952515 C362.80825953 344.02498011 364.68638195 344.64227156 366.56184387 345.26742554 C365.58582419 355.40301454 356.79488041 363.82585738 349.34309387 370.17367554 C330.07922713 384.67568758 308.69722224 387.59093617 285.22517395 387.5262146 C283.54474232 387.52893227 281.86431189 387.53249751 280.18388367 387.53683472 C275.67015412 387.54586107 271.15651718 387.54245734 266.64278626 387.53607655 C261.90280569 387.53097476 257.16283248 387.53571867 252.42285156 387.53884888 C244.47885222 387.54247252 236.53489026 387.53772759 228.59089661 387.52816772 C219.40831114 387.51724495 210.22581423 387.5208428 201.04323083 387.53182054 C193.13973889 387.54089006 185.23627362 387.54218157 177.33277816 387.5369432 C172.62009997 387.53382695 167.90746348 387.53340554 163.19478798 387.54001617 C158.77465647 387.54578555 154.3546398 387.54180032 149.93452072 387.53022766 C148.3123449 387.52758066 146.69015944 387.52834685 145.06798744 387.53275299 C142.85644266 387.53820728 140.64526749 387.53137645 138.43374634 387.52139282 C137.19590299 387.52063877 135.95805964 387.51988472 134.68270588 387.51910782 C131.69939896 387.27851868 130.01627127 386.93445655 127.56184387 385.26742554 C124.16091015 378.46555809 129.43341528 367.16607605 131.46809387 360.38461304 C131.87217885 359.01790669 132.27568867 357.65103018 132.67866516 356.28399658 C133.96189752 351.94177971 135.2612554 347.60446903 136.56184387 343.26742554 C136.98430907 341.85506181 137.40667339 340.44266791 137.82893372 339.03024292 C140.65411315 329.58623686 143.50435441 320.14987241 146.35938263 310.71485519 C148.55806979 303.44570503 150.75095603 296.17480056 152.94465637 288.90414429 C153.18746967 288.09954081 153.43028297 287.29493732 153.68045425 286.46595192 C158.12969406 271.72130685 162.54365331 256.96637644 166.93684387 242.20492554 C174.00913694 218.44533192 181.1235698 194.69852658 188.24934387 170.95492554 C188.51104118 170.08290874 188.77273849 169.21089195 189.04236603 168.31245041 C189.30094643 167.4508292 189.55952682 166.58920799 189.82594299 165.70147705 C190.08162174 164.84951909 190.33730049 163.99756113 190.60072708 163.11978626 C191.10763303 161.43088323 191.61461797 159.7420039 192.12168503 158.05314922 C193.32778603 154.03592372 194.53286709 150.01839966 195.73530579 146.00007629 C197.6757637 139.51916301 199.62289247 133.04162788 201.63459778 126.58236694 C202.0749511 125.15740654 202.0749511 125.15740654 202.52420044 123.70365906 C203.03969324 122.04051533 203.56196086 120.37944629 204.09301758 118.72120667 C205.42509911 114.5249817 205.42509911 114.5249817 204.56184387 110.26742554 C172.55184387 110.26742554 140.54184387 110.26742554 107.56184387 110.26742554 Z " fill="#034075" transform="translate(85.43815612792969,-0.267425537109375)"/>
<path d="M0 0 C1.99022049 -0.00373923 3.98043951 -0.00834184 5.97065622 -0.01373065 C11.42608057 -0.02594225 16.88144352 -0.02570234 22.33687842 -0.02334189 C28.22594304 -0.02293326 34.1149881 -0.03397728 40.00404358 -0.04345703 C51.53678448 -0.06005787 63.06950494 -0.06556616 74.6022568 -0.06668179 C83.97832338 -0.06760189 93.35438334 -0.07172386 102.73044777 -0.07808304 C105.43216222 -0.07987821 108.13387668 -0.08165784 110.83559114 -0.08343279 C111.50730152 -0.08387489 112.1790119 -0.08431699 112.87107715 -0.08477248 C131.75808913 -0.09707617 150.64509882 -0.10497409 169.53211498 -0.10408592 C170.59963959 -0.10403919 170.59963959 -0.10403919 171.68873034 -0.10399151 C175.29559594 -0.1038253 178.90246154 -0.10362722 182.50932714 -0.10342209 C183.22562564 -0.1033822 183.94192414 -0.10334231 184.67992865 -0.10330121 C186.1284582 -0.10322034 187.57698775 -0.10313674 189.02551729 -0.10305043 C211.55693908 -0.10182521 234.08830064 -0.11683467 256.6197052 -0.14419556 C281.95124419 -0.17494432 307.28274363 -0.19212637 332.61430246 -0.19026911 C335.31758869 -0.19011986 338.02087491 -0.19002244 340.72416115 -0.18996048 C341.72253915 -0.18992552 341.72253915 -0.18992552 342.7410864 -0.18988985 C352.7713837 -0.18983221 362.80163148 -0.20050815 372.8319149 -0.21662521 C384.2461282 -0.23484874 395.66024279 -0.23917463 407.07446434 -0.22560637 C412.89505212 -0.21908276 418.71545059 -0.21893784 424.53602028 -0.23631287 C429.87129114 -0.25207505 435.20622307 -0.24914763 440.54148582 -0.2317446 C442.46472658 -0.22868166 444.38799283 -0.23228025 446.3112035 -0.24346475 C460.71628374 -0.3216454 473.56690436 1.08457137 486.49934387 8.01742554 C487.66336731 8.63101929 488.82739075 9.24461304 490.02668762 9.87680054 C490.86328918 10.33570679 491.69989075 10.79461304 492.56184387 11.26742554 C490.56184387 12.26742554 490.56184387 12.26742554 487.49934387 11.45492554 C484.56184387 10.26742554 484.56184387 10.26742554 483.56184387 8.26742554 C480.97579056 7.79909904 480.97579056 7.79909904 477.99934387 7.64242554 C476.98742981 7.56765991 475.97551575 7.49289429 474.93293762 7.41586304 C474.15047668 7.36687866 473.36801575 7.31789429 472.56184387 7.26742554 C472.23184387 5.94742554 471.90184387 4.62742554 471.56184387 3.26742554 C460.87066307 2.32454824 450.28727519 2.12520356 439.56396484 2.14044189 C437.77856439 2.13928746 435.99316417 2.13769777 434.20776445 2.13571465 C429.33605626 2.13156461 424.46436782 2.13359248 419.59265959 2.13670087 C414.32349558 2.1389729 409.05433486 2.1354661 403.78517151 2.13272095 C393.46881801 2.12828104 383.15247179 2.12923254 372.83611801 2.13213359 C364.43291303 2.13439791 356.02971009 2.13469568 347.6265049 2.13360977 C345.82785735 2.13337992 345.82785735 2.13337992 343.99287349 2.13314543 C341.55608095 2.13282567 339.11928841 2.13250145 336.68249587 2.13217284 C313.83753833 2.1293224 290.99258481 2.13259652 268.14762793 2.1379732 C248.62920374 2.14242541 229.11078552 2.14167759 209.59236145 2.13705444 C186.86740293 2.13167422 164.14244794 2.12961322 141.41748887 2.13266671 C138.98172875 2.1329852 136.54596863 2.13329958 134.11020851 2.13360977 C132.31318277 2.13384119 132.31318277 2.13384119 130.47985348 2.13407727 C122.11972838 2.1349333 113.75960556 2.13349914 105.39948082 2.13113022 C95.16165666 2.12829286 84.92384013 2.12915121 74.68601682 2.13441096 C69.48197624 2.13699822 64.27794828 2.13814045 59.07390785 2.13476181 C38.6154224 2.12264567 18.16870898 2.23619855 -2.28488159 2.7130127 C-3.59999184 2.74214134 -3.59999184 2.74214134 -4.94166998 2.77185844 C-7.41191594 2.82806639 -9.88191114 2.89054768 -12.3519392 2.95556831 C-13.0710241 2.9718747 -13.79010899 2.98818108 -14.53098433 3.00498159 C-22.92163255 3.09993424 -22.92163255 3.09993424 -30.43815613 6.26742554 C-32.07277879 6.73446058 -33.70818182 7.19902345 -35.34831238 7.64633179 C-45.75948729 10.74049405 -52.8027953 15.05563222 -59.74284363 23.34945679 C-61.28075653 25.08935364 -62.81397211 26.51195108 -64.62565613 27.95492554 C-72.54794037 34.46880369 -76.3149195 43.55317436 -78.66471863 53.33383179 C-79.43815613 56.26742554 -79.43815613 56.26742554 -80.15215462 58.05414766 C-82.80666215 64.87856979 -82.90937691 71.3355789 -82.94396973 78.59397888 C-82.96053485 79.93424179 -82.97828573 81.27449048 -82.99711025 82.61472356 C-83.04458497 86.28546772 -83.07313556 89.95614319 -83.09784769 93.62710242 C-83.1213695 96.79584818 -83.15547021 99.9644496 -83.18924436 103.13310005 C-83.61756785 143.67978838 -83.60295128 184.23113411 -83.6054132 224.77958941 C-83.60591664 231.28953855 -83.60822845 237.79948633 -83.61091042 244.30943489 C-83.61963411 265.93294428 -83.62434008 287.55644884 -83.62357994 309.17996 C-83.62353999 310.32958291 -83.62350003 311.47920581 -83.62345886 312.66366577 C-83.62341798 313.81473629 -83.6233771 314.96580681 -83.62333498 316.15175826 C-83.62292525 334.95976326 -83.63259799 353.76774856 -83.64659723 372.57574784 C-83.66097169 392.04483436 -83.66786762 411.51391124 -83.66700345 430.9830032 C-83.66667307 441.85279217 -83.66935337 452.72256017 -83.6801815 463.59234428 C-83.68929802 472.79849514 -83.69145025 482.00461538 -83.68467208 491.21076881 C-83.68141997 495.89378796 -83.68130406 500.57674834 -83.69002533 505.25976181 C-83.69794307 509.55511313 -83.69640602 513.85035953 -83.6877412 518.14570845 C-83.68621841 519.68759067 -83.68797548 521.22948095 -83.69360127 522.77135365 C-83.7207207 530.73903046 -83.44056892 538.57877986 -82.54770374 546.50151157 C-82.47018853 547.20598283 -82.39267331 547.91045409 -82.31280915 548.63627296 C-81.83465615 552.47784565 -81.00372587 555.73518611 -79.43815613 559.26742554 C-79.00503113 560.9187146 -79.00503113 560.9187146 -78.56315613 562.60336304 C-77.30097633 566.71421253 -75.53240572 570.159198 -73.43815613 573.89242554 C-71.19673949 577.93672078 -69.03856956 581.91630152 -67.43815613 586.26742554 C-71.33470888 582.68259701 -74.03797014 579.0376591 -76.50065613 574.32992554 C-76.84427185 573.67967407 -77.18788757 573.02942261 -77.54191589 572.35946655 C-83.0029622 561.6304216 -85.59632935 550.14723257 -85.5723772 538.1299324 C-85.57472944 537.32304783 -85.57708167 536.51616325 -85.57950518 535.68482763 C-85.58617211 532.97595753 -85.58573765 530.26713566 -85.58532715 527.55825806 C-85.58862722 525.59837768 -85.5923531 523.63849798 -85.59646863 521.67861915 C-85.60648067 516.28837456 -85.61020416 510.89814112 -85.61285794 505.50788856 C-85.61676343 499.6957297 -85.6263417 493.88357963 -85.6350708 488.07142639 C-85.65482978 474.03144814 -85.66490136 459.99146918 -85.67379859 445.95148051 C-85.678183 439.33706593 -85.68354947 432.72265216 -85.68878746 426.10823822 C-85.70580027 404.11483553 -85.72031824 382.12143332 -85.7275362 360.12802505 C-85.72801095 358.70599301 -85.72848684 357.28396097 -85.72896386 355.86192892 C-85.72920024 355.15674848 -85.72943662 354.45156803 -85.72968015 353.72501848 C-85.73088132 350.15240286 -85.73209678 346.57978724 -85.73332214 343.00717163 C-85.73356229 342.29818265 -85.73380244 341.58919366 -85.73404987 340.85872016 C-85.7419368 317.88924663 -85.76535575 294.91982482 -85.79787809 271.95037386 C-85.8322235 247.6488194 -85.8518918 223.34729518 -85.85518044 199.04571605 C-85.85724996 185.80565566 -85.86606076 172.56566809 -85.89164162 159.32563019 C-85.91338231 148.0471884 -85.92138248 136.7688411 -85.91167483 125.49038073 C-85.90713975 119.74032862 -85.90897035 113.99047131 -85.92843628 108.24044609 C-85.94613744 102.96592759 -85.94501399 97.691745 -85.92953899 92.41722259 C-85.92717343 90.51937814 -85.93143117 88.62151001 -85.94336764 86.72370163 C-86.03280887 71.55089784 -84.74679678 56.09919362 -77.75065613 42.32992554 C-77.23801208 41.28675171 -77.23801208 41.28675171 -76.7150116 40.22250366 C-73.45303318 33.84339227 -69.41553075 28.428221 -64.43815613 23.26742554 C-63.67889832 22.47980835 -62.9196405 21.69219116 -62.13737488 20.88070679 C-53.07187667 12.14162586 -41.60355129 5.58824962 -29.43815613 2.26742554 C-28.8486392 2.10072432 -28.25912228 1.9340231 -27.65174121 1.76227033 C-18.56129633 -0.43778803 -9.28848959 -0.01653407 0 0 Z " fill="#0E3758" transform="translate(85.43815612792969,-0.267425537109375)"/>
<path d="M0 0 C0.33 0 0.66 0 1 0 C0.85831863 1.43791516 0.71148957 2.8753237 0.5625 4.3125 C0.48128906 5.11300781 0.40007812 5.91351563 0.31640625 6.73828125 C0 9 0 9 -1 12 C-0.79375 12.639375 -0.5875 13.27875 -0.375 13.9375 C-0.25125 14.618125 -0.1275 15.29875 0 16 C-0.433125 16.54785156 -0.86625 17.09570312 -1.3125 17.66015625 C-3.5080181 20.70440473 -4.51142193 23.95992157 -5.625 27.5 C-5.8415625 28.16386719 -6.058125 28.82773438 -6.28125 29.51171875 C-7.29710501 32.65334443 -8.21012351 35.79535826 -9 39 C-9.309375 39.70125 -9.61875 40.4025 -9.9375 41.125 C-10.89339759 43.71154641 -11.39721891 45.98571138 -11.875 48.6875 C-12.56506947 52.402834 -13.57954254 55.65048956 -15.0625 59.125 C-16.37512084 62.20869381 -17.25377479 64.84940868 -17.5625 68.1875 C-18.03603367 72.31400767 -19.28913425 75.23609535 -21 79 C-22.6840464 84.15120076 -23.61217637 89.30203451 -24.4375 94.64453125 C-25 97 -25 97 -27 99 C-27.165 100.155 -27.33 101.31 -27.5 102.5 C-28 106 -28 106 -30 108 C-30.7298193 110.11274993 -30.7298193 110.11274993 -31.3125 112.625 C-32.77507291 118.29528266 -34.49162295 123.85646882 -36.28637695 129.42822266 C-37.15529633 132.15563588 -37.96799468 134.83926217 -38.52734375 137.6484375 C-39.06503942 140.32358455 -39.95217403 142.70674353 -40.9375 145.25 C-42.50327464 149.45554632 -43.67931047 153.55282881 -44.5703125 157.9453125 C-45.21194312 161.01347344 -46.10990624 163.99593355 -47 167 C-47.28875 168.0725 -47.5775 169.145 -47.875 170.25 C-48.81259849 173.3753283 -49.86231655 176.38260924 -51 179.4375 C-52.19601518 182.66806498 -53.27680863 185.83345617 -54.0625 189.1875 C-55 193 -55 193 -56.4375 196.5 C-59.00795651 203.00482872 -59.82572467 210.1375683 -61 217 C-60.34 217 -59.68 217 -59 217 C-59 217.66 -59 218.32 -59 219 C-35.85119717 218.93940286 -12.70250591 218.86185864 10.44617176 218.76428509 C21.19514293 218.71936997 31.94408128 218.67994542 42.69311523 218.65356445 C52.06484833 218.63054969 61.4364772 218.5971128 70.80812758 218.55129844 C75.76773371 218.52741315 80.72723691 218.50865363 85.68689919 218.50238609 C90.36137211 218.49631399 95.03558185 218.47623764 99.70995712 218.44572449 C101.41946646 218.43697824 103.12901024 218.43321456 104.83854103 218.43499184 C113.12117806 218.4408805 120.85474282 218.32381537 128.80639172 215.65935993 C131.973586 214.70735723 134.71981824 214.78132122 138 215 C138 214.34 138 213.68 138 213 C139.65 213 141.3 213 143 213 C143 212.34 143 211.68 143 211 C144.98 210.67 146.96 210.34 149 210 C149.33 209.01 149.66 208.02 150 207 C153.0625 205.8125 153.0625 205.8125 156 205 C156 204.34 156 203.68 156 203 C157.32 202.67 158.64 202.34 160 202 C160 201.34 160 200.68 160 200 C160.75023437 199.56945312 161.50046875 199.13890625 162.2734375 198.6953125 C165.38018559 196.76360953 166.66943628 194.93782354 168.625 191.875 C171.67936118 187.10687961 171.67936118 187.10687961 175 186 C175 183.36 175 180.72 175 178 C172.36 177.67 169.72 177.34 167 177 C167 176.34 167 175.68 167 175 C164.69 175 162.38 175 160 175 C159.67 174.01 159.34 173.02 159 172 C166.09883934 173.14789743 172.41658619 175.11450374 179 178 C178.17005901 187.0088756 170.55930867 195.21349643 164.11328125 201.2890625 C144.01539717 217.56054721 122.43892575 221.14481688 97.24682617 221.16113281 C95.56875501 221.16576917 93.89068489 221.17079492 92.21261597 221.17617798 C87.68202554 221.18921397 83.15144987 221.19572808 78.62084365 221.20018864 C75.78815945 221.20312999 72.9554792 221.20723647 70.12279701 221.21169281 C61.25254277 221.22533642 52.38229765 221.23502179 43.51203364 221.2388947 C33.28362427 221.24338615 23.05534781 221.26099734 12.82697886 221.2898953 C4.90744128 221.31149283 -3.01205882 221.32159773 -10.93162555 221.32293582 C-15.65730239 221.32398402 -20.38285375 221.32989675 -25.10849953 221.34775543 C-29.54664947 221.36420563 -33.98457904 221.36640657 -38.42274857 221.35761642 C-40.05095827 221.35684476 -41.67917971 221.36120576 -43.3073597 221.37107468 C-45.52990257 221.38375719 -47.75166018 221.37793851 -49.97419739 221.36749268 C-51.21761304 221.36895924 -52.46102869 221.3704258 -53.7421236 221.3719368 C-57.28578658 220.96737306 -59.17134399 220.13413565 -62 218 C-65.40093372 211.19813256 -60.12842859 199.89865052 -58.09375 193.1171875 C-57.68966502 191.75048115 -57.28615521 190.38360464 -56.88317871 189.01657104 C-55.59994635 184.67435418 -54.30058847 180.3370435 -53 176 C-52.5775348 174.58763628 -52.15517048 173.17524237 -51.73291016 171.76281738 C-48.90698554 162.31631933 -46.05607276 152.87743958 -43.20023727 143.43994904 C-41.01674391 136.22143034 -38.83874425 129.00125032 -36.66015625 121.78125 C-36.41867922 120.98114124 -36.17720219 120.18103249 -35.92840767 119.35667801 C-31.23070558 103.7895442 -26.57558479 88.21000304 -21.9375 72.625 C-16.82469168 55.44827545 -11.68828923 38.27909157 -6.5 21.125 C-6.08220779 19.74311493 -6.08220779 19.74311493 -5.65597534 18.33331299 C-4.88589065 15.78711328 -4.11504917 13.24114455 -3.34375 10.6953125 C-3.11861221 9.95148315 -2.89347443 9.20765381 -2.66151428 8.44128418 C-1.80434416 5.6161272 -0.93366679 2.80100036 0 0 Z " fill="#123C60" transform="translate(274,167)"/>
<path d="M0 0 C0.94082932 0.00359528 1.88165863 0.00719055 2.85099792 0.01089478 C4.3288829 0.01067574 4.3288829 0.01067574 5.83662415 0.01045227 C9.11023623 0.01115185 12.3837922 0.01894632 15.65739441 0.02676392 C17.92040984 0.02862794 20.18342567 0.03005191 22.44644165 0.03105164 C28.41577764 0.03487807 34.38508948 0.04470942 40.35441589 0.05575562 C46.44043145 0.06596705 52.52645089 0.07054868 58.61247253 0.07559204 C70.56365505 0.08633157 82.5148196 0.10340949 94.46598816 0.12442017 C94.46598816 0.45442017 94.46598816 0.78442017 94.46598816 1.12442017 C45.95598816 1.61942017 45.95598816 1.61942017 -3.53401184 2.12442017 C-7.6218678 14.97196747 -11.69127685 27.78556578 -15.46272278 40.7237854 C-15.74724304 41.69854828 -16.03176331 42.67331116 -16.3249054 43.6776123 C-16.62078552 44.6913089 -16.91666565 45.70500549 -17.22151184 46.74942017 C-17.86869091 48.95921953 -18.51616213 51.16893335 -19.16389465 53.37857056 C-20.55886775 58.13782023 -21.95274091 62.8973902 -23.34602356 67.65713501 C-25.56001687 75.21707284 -27.78222332 82.77458329 -30.00666809 90.33145142 C-30.1980196 90.9815386 -30.38937111 91.63162579 -30.58652115 92.30141258 C-31.37681014 94.98627476 -32.16711535 97.67113217 -32.95745659 100.35597897 C-36.89774612 113.74202107 -40.83255694 127.12967554 -44.76766205 140.51724243 C-45.29018835 142.29491492 -45.81272606 144.07258405 -46.33527374 145.85025024 C-49.83302269 157.74937284 -53.3297094 169.64880674 -56.82439613 181.54882908 C-58.26809485 186.46486395 -59.71207415 191.38081582 -61.15693665 196.29650879 C-64.1326895 206.4215052 -67.10227859 216.54825732 -70.06087685 226.67828083 C-71.78048026 232.56174622 -73.51330327 238.441178 -75.25306225 244.31871319 C-76.46051647 248.40465213 -77.65984612 252.49294904 -78.85759163 256.58174324 C-79.42676759 258.51839961 -79.9992696 260.45408224 -80.57543755 262.38866997 C-88.00549492 287.35235282 -90.90096689 311.03018016 -78.53401184 335.12442017 C-74.44032543 341.88426104 -69.63777781 348.10413285 -64.53401184 354.12442017 C-67.85990888 353.87805742 -68.67586039 352.96802305 -70.97151184 350.43692017 C-71.39303528 349.89164673 -71.81455872 349.34637329 -72.24885559 348.78457642 C-73.43472327 347.25268048 -74.73086783 345.80787858 -76.03401184 344.37442017 C-80.54900706 338.94499553 -83.97466909 332.20942833 -84.53401184 325.12442017 C-85.19401184 325.12442017 -85.85401184 325.12442017 -86.53401184 325.12442017 C-90.32437237 309.70915926 -92.8477239 295.35049471 -88.26057434 279.78848267 C-87.54384896 277.1604896 -87.20375363 274.70890768 -86.97151184 271.99942017 C-86.53401184 268.12442017 -86.53401184 268.12442017 -84.53401184 266.12442017 C-83.85749978 263.92737506 -83.85749978 263.92737506 -83.40901184 261.49942017 C-83.15764465 260.27352173 -83.15764465 260.27352173 -82.90119934 259.02285767 C-82.78002747 258.39637329 -82.65885559 257.76988892 -82.53401184 257.12442017 C-81.87401184 257.12442017 -81.21401184 257.12442017 -80.53401184 257.12442017 C-80.41026184 255.94879517 -80.28651184 254.77317017 -80.15901184 253.56192017 C-79.56190197 248.80186122 -78.4825391 244.29844463 -76.55744934 239.88613892 C-74.86151852 235.30971491 -74.25207008 230.51332439 -73.41291809 225.71817017 C-72.56614862 222.2558239 -71.4058141 220.10412701 -69.53401184 217.12442017 C-68.9772837 214.929228 -68.9772837 214.929228 -68.84651184 212.81192017 C-68.74338684 211.59504517 -68.64026184 210.37817017 -68.53401184 209.12442017 C-67.87401184 209.12442017 -67.21401184 209.12442017 -66.53401184 209.12442017 C-66.50823059 208.35098267 -66.48244934 207.57754517 -66.45588684 206.78067017 C-65.93589716 197.23176873 -65.93589716 197.23176873 -63.72151184 193.43692017 C-59.60246435 186.30722341 -58.57177725 177.33517181 -56.97932434 169.33926392 C-56.02942904 164.61478463 -54.51767917 160.55052506 -52.48323059 156.17910767 C-50.31309768 151.48161831 -49.42435435 147.24103198 -48.87385559 142.11270142 C-48.44674787 139.61387581 -47.44545618 137.47976313 -46.36604309 135.19863892 C-44.55572766 130.68559903 -43.62866708 125.85239918 -42.53401184 121.12442017 C-41.87401184 121.12442017 -41.21401184 121.12442017 -40.53401184 121.12442017 C-40.53401184 119.14442017 -40.53401184 117.16442017 -40.53401184 115.12442017 C-39.87401184 115.12442017 -39.21401184 115.12442017 -38.53401184 115.12442017 C-38.41026184 113.99004517 -38.28651184 112.85567017 -38.15901184 111.68692017 C-36.84473265 101.20970855 -33.57498016 91.20016186 -30.53401184 81.12442017 C-29.87401184 81.12442017 -29.21401184 81.12442017 -28.53401184 81.12442017 C-28.59588684 79.92817017 -28.65776184 78.73192017 -28.72151184 77.49942017 C-28.87804591 74.4730949 -28.51226274 73.08169659 -27.10823059 70.32363892 C-25.32164272 66.69283131 -24.76967288 63.55500888 -24.15901184 59.56192017 C-22.89420728 51.98451908 -20.55619075 45.19611933 -17.53401184 38.12442017 C-15.45868 33.11215661 -13.46584068 27.98760873 -13.59651184 22.49942017 C-13.50983831 19.20582612 -12.04273081 17.02116058 -10.53401184 14.12442017 C-9.83493771 11.38869432 -9.83493771 11.38869432 -9.53401184 9.12442017 C-8.87401184 9.12442017 -8.21401184 9.12442017 -7.53401184 9.12442017 C-7.55463684 7.82504517 -7.57526184 6.52567017 -7.59651184 5.18692017 C-7.61800639 3.83276383 -7.60549383 2.47685934 -7.53401184 1.12442017 C-5.58035878 -0.8292329 -2.60001432 0.00419893 0 0 Z " fill="#103D60" transform="translate(196.5340118408203,108.87557983398438)"/>
<path d="M0 0 C0.66 0 1.32 0 2 0 C2 0.66 2 1.32 2 2 C2.99 2 3.98 2 5 2 C5.45375 2.61875 5.9075 3.2375 6.375 3.875 C8.33746587 6.44130153 10.05169918 6.83619704 13 8 C13.33 8.99 13.66 9.98 14 11 C14.763125 11.144375 15.52625 11.28875 16.3125 11.4375 C19 12 19 12 22 13 C22 13.66 22 14.32 22 15 C23.36125 15.2165625 23.36125 15.2165625 24.75 15.4375 C27.21476956 15.86409473 29.58847107 16.35074221 32 17 C32 17.66 32 18.32 32 19 C33.175625 18.95875 34.35125 18.9175 35.5625 18.875 C38.43085598 18.77435593 40.36245486 19.11511282 43.1381489 19.99665147 C47.24944939 21.06480951 51.01311521 21.27723521 55.22321129 21.24888897 C56.02719258 21.25149625 56.83117388 21.25410354 57.65951824 21.25678983 C60.35246861 21.2630841 63.04518527 21.25513016 65.73812866 21.24723816 C67.68878727 21.24882657 69.63944532 21.25129048 71.59010184 21.25455457 C76.94988207 21.2609703 82.3095868 21.25489811 87.66936207 21.24679029 C93.44997207 21.24021464 99.23057362 21.24516151 105.01118469 21.24867249 C116.33578639 21.25371609 127.6603589 21.24807063 138.98495696 21.23882218 C152.17050857 21.2284409 165.35605385 21.22850831 178.54160877 21.22899476 C202.77912394 21.22970277 227.01662487 21.21947114 251.25413484 21.20449232 C273.37548013 21.19087164 295.49681461 21.18463091 317.61816406 21.18530273 C319.0382865 21.18534315 320.45840894 21.18538351 321.87853138 21.18542381 C322.58061549 21.18544416 323.2826996 21.18546452 324.00605899 21.18548548 C327.54033172 21.18558628 331.07460445 21.18567686 334.60887718 21.18575573 C335.30614913 21.18577244 336.00342107 21.18578916 336.72182247 21.18580638 C359.17734345 21.18625009 381.63286227 21.17912887 404.0883817 21.17139288 C413.2804929 21.1683765 422.47260317 21.16731331 431.66471481 21.16686058 C442.86761102 21.16617831 454.07049866 21.16171176 465.27339123 21.15252777 C470.98986002 21.14791178 476.70631785 21.14486355 482.42278862 21.14612198 C487.655986 21.14721815 492.88915915 21.14369162 498.12235148 21.13647345 C500.01529033 21.13466243 501.90823169 21.13452759 503.80117063 21.13624074 C506.37584446 21.13831281 508.95043945 21.13422815 511.52510643 21.12863445 C512.25831777 21.13068977 512.99152911 21.13274509 513.74695897 21.13486269 C521.19587967 21.1053452 527.60136692 21.0621138 534 17 C537.11328125 16.48828125 537.11328125 16.48828125 540.3125 16.3125 C541.91544922 16.21388672 541.91544922 16.21388672 543.55078125 16.11328125 C544.35902344 16.07589844 545.16726563 16.03851562 546 16 C542.85492941 18.09671373 540.23174751 18.97717438 536.625 20.0625 C534.94277344 20.57490234 534.94277344 20.57490234 533.2265625 21.09765625 C527.69461592 22.64472606 522.63754912 23.14548452 516.89908791 23.13422108 C515.67648082 23.13774942 515.67648082 23.13774942 514.4291746 23.14134905 C511.68646316 23.14802831 508.94379921 23.14758115 506.20108032 23.14717102 C504.21930093 23.15047032 502.2375222 23.15419603 500.25574434 23.1583125 C494.80044071 23.16833325 489.34514808 23.17204943 483.88983655 23.17470181 C478.00955058 23.17860469 472.12927333 23.18818311 466.24899292 23.19691467 C452.71407884 23.21574616 439.17916409 23.22593578 425.64424016 23.23437535 C418.9530001 23.23858362 412.26176094 23.24380542 405.57052163 23.24905988 C382.6575289 23.26695086 359.74453592 23.28194538 336.83153725 23.28938007 C335.39321443 23.28985483 333.95489162 23.29033072 332.5165688 23.29080774 C331.4466674 23.2911623 331.4466674 23.2911623 330.35515183 23.29152403 C326.74148794 23.2927252 323.12782404 23.29394066 319.51416016 23.29516602 C318.7970218 23.29540617 318.07988343 23.29564632 317.34101361 23.29589374 C294.10137894 23.30378273 270.86179536 23.32720589 247.622183 23.35972196 C223.04207354 23.39405068 198.46199396 23.4137341 173.88186014 23.41702431 C171.18130452 23.41744184 168.48074892 23.4179214 165.78019333 23.41844749 C164.7827913 23.41863228 164.7827913 23.41863228 163.76523974 23.4188208 C153.74265466 23.4210052 143.72012544 23.43436178 133.69755936 23.45348549 C122.28871967 23.47520398 110.87997332 23.48323723 99.47111531 23.47351871 C93.65258369 23.46897727 87.83424459 23.47085141 82.01573944 23.49028015 C76.68212552 23.50793552 71.34884422 23.50689461 66.01522665 23.49138286 C64.09250685 23.4890104 62.16976388 23.49331136 60.24707945 23.50521151 C37.83957545 23.63523433 16.74748733 17.84221775 0 2 C0 1.34 0 0.68 0 0 Z " fill="#0F385C" transform="translate(23,591)"/>
<path d="M0 0 C0.33 0 0.66 0 1 0 C1.0685118 45.14041199 1.13218925 90.28082994 1.16937256 135.42127991 C1.16992479 136.08996801 1.17047702 136.75865611 1.17104598 137.44760748 C1.18301917 151.98195436 1.19409967 166.5163018 1.20426132 181.05065006 C1.20925042 188.17886774 1.21443667 195.30708527 1.21972656 202.43530273 C1.2202496 203.14462495 1.22077263 203.85394717 1.22131152 204.584764 C1.23833991 227.55282017 1.26837241 250.52083683 1.30518888 273.48886909 C1.34297127 297.10251975 1.36755382 320.71614858 1.37565996 344.32982895 C1.38090906 359.53955041 1.39764163 374.74916401 1.43166587 389.95884991 C1.45284308 399.93501156 1.45919276 409.91111472 1.45400551 419.88729721 C1.45144876 425.63921287 1.45531152 431.39093054 1.4768219 437.14281082 C1.49640513 442.41812716 1.49719408 447.69311389 1.48359558 452.96844596 C1.48191695 454.86780041 1.48689075 456.76717612 1.49953273 458.66648924 C1.59168135 473.37693139 0.44245983 488.24705549 -6.75 501.4375 C-7.08999023 502.08871826 -7.42998047 502.73993652 -7.78027344 503.41088867 C-11.65247691 510.59082152 -16.258445 517.27196253 -23 522 C-22.505 519.525 -22.505 519.525 -22 517 C-21.01 516.67 -20.02 516.34 -19 516 C-19 515.01 -19 514.02 -19 513 C-17.35570171 511.31126121 -15.68615782 509.64694485 -14 508 C-13.443125 507.071875 -12.88625 506.14375 -12.3125 505.1875 C-11.879375 504.465625 -11.44625 503.74375 -11 503 C-10.34 503 -9.68 503 -9 503 C-8.87625 502.319375 -8.7525 501.63875 -8.625 500.9375 C-7.90899123 497.5722588 -6.97054875 494.29986575 -6 491 C-5.34 491 -4.68 491 -4 491 C-3.90912109 489.82630859 -3.90912109 489.82630859 -3.81640625 488.62890625 C-3.73261719 487.61699219 -3.64882813 486.60507812 -3.5625 485.5625 C-3.48128906 484.55316406 -3.40007813 483.54382813 -3.31640625 482.50390625 C-3 480 -3 480 -2 479 C-1.84017418 476.64103872 -1.74460652 474.30896302 -1.69081211 471.94673061 C-1.67055213 471.2057785 -1.65029214 470.46482639 -1.62941822 469.70142118 C-1.56382345 467.21393523 -1.50653016 464.7263473 -1.45033264 462.2386322 C-1.42944767 461.37160637 -1.4085627 460.50458055 -1.38704485 459.61128121 C-0.89893735 439.16690536 -0.82656277 418.72380665 -0.79939139 398.27452528 C-0.79120431 392.90296475 -0.77757321 387.53141725 -0.76467896 382.15986633 C-0.74316882 372.90335574 -0.72493474 363.64684366 -0.70907402 354.39032173 C-0.68613851 341.00775705 -0.65803181 327.62520693 -0.62875474 314.24265479 C-0.5813646 292.51830306 -0.53802521 270.79394528 -0.49731445 249.06958008 C-0.45781257 227.99503105 -0.41635243 206.92048733 -0.37231445 185.84594727 C-0.36959018 184.54191543 -0.36686591 183.23788359 -0.36405908 181.89433564 C-0.3503772 175.35089896 -0.3366574 168.80746236 -0.32291877 162.26402581 C-0.20940422 108.17602838 -0.1024978 54.08801935 0 0 Z " fill="#0D3658" transform="translate(613,71)"/>
<path d="M0 0 C0.92039063 0.53109375 1.84078125 1.0621875 2.7890625 1.609375 C15.6661562 8.86120296 28.33906218 13.15236827 43.30084229 13.14476013 C44.53148112 13.1500504 44.53148112 13.1500504 45.78698134 13.15544754 C48.52758971 13.16609605 51.26816327 13.1698087 54.00878906 13.17358398 C55.97684881 13.1798919 57.94490714 13.18665797 59.91296387 13.19384766 C64.14611769 13.20849617 68.37926607 13.22022923 72.61243439 13.22979546 C79.30087366 13.24525533 85.98926575 13.26920158 92.67767334 13.29469299 C111.69491602 13.36588526 130.71218499 13.4257954 149.72949219 13.47680664 C160.236112 13.50506395 170.74268413 13.5404135 181.24925399 13.58346039 C187.90389215 13.61029445 194.55847642 13.62816092 201.21315813 13.63949764 C205.34322561 13.64859325 209.47322717 13.66593942 213.60325623 13.68567657 C215.52457905 13.69317855 217.44591874 13.69723472 219.36725616 13.69767189 C221.98066705 13.69874715 224.59373892 13.71192863 227.20709229 13.72825623 C227.97536354 13.72563937 228.7436348 13.72302252 229.53518701 13.72032636 C234.77178459 13.77178459 234.77178459 13.77178459 237 16 C236.87017194 18.71163603 236.62680532 21.25982722 236.25 23.9375 C236.16234375 24.66646484 236.0746875 25.39542969 235.984375 26.14648438 C235.50820865 29.75410581 235.04745674 31.92881488 233 35 C233.01740234 33.17662109 233.01740234 33.17662109 233.03515625 31.31640625 C233.04453278 29.73177236 233.05363313 28.14713682 233.0625 26.5625 C233.07087891 25.76005859 233.07925781 24.95761719 233.08789062 24.13085938 C233.0965143 22.08704779 233.0522815 20.04316098 233 18 C231.01860735 16.01860735 227.08706962 16.849558 224.37635803 16.84851074 C223.56837137 16.84427833 222.76038471 16.84004592 221.92791361 16.83568525 C219.19941787 16.82258833 216.47095141 16.81661829 213.74243164 16.81054688 C211.79481322 16.80261007 209.84719659 16.79422257 207.89958191 16.78541565 C203.69526244 16.76731801 199.49094702 16.75231698 195.28660774 16.73963928 C188.6447763 16.71947568 182.00298939 16.6918156 175.3611908 16.66296387 C161.26164801 16.60278472 147.16207857 16.55098706 133.0625 16.5 C117.84699166 16.44496771 102.63149679 16.3885278 87.41603178 16.32245111 C80.80740441 16.29403854 74.19878238 16.27046513 67.59012425 16.25052643 C63.48520373 16.23717128 59.38030785 16.21975699 55.27540779 16.20121574 C53.36537293 16.19343751 51.45533023 16.1873777 49.54528427 16.18312263 C46.9470224 16.17710639 44.34885726 16.16507314 41.75062561 16.15148926 C40.98672565 16.15119327 40.22282569 16.15089728 39.43577725 16.15059233 C34.22818518 16.11409259 34.22818518 16.11409259 32 15 C30.19129862 14.79620266 28.37763408 14.63499005 26.5625 14.5 C23.43691282 14.26693358 20.98575171 13.99525057 18 13 C17.67 12.34 17.34 11.68 17 11 C13.97065509 10.34227572 13.97065509 10.34227572 11 10 C11 9.34 11 8.68 11 8 C9.68 8 8.36 8 7 8 C4.9375 6.125 4.9375 6.125 3 4 C2.01 3.34 1.02 2.68 0 2 C0 1.34 0 0.68 0 0 Z " fill="#164063" transform="translate(139,468)"/>
<path d="M0 0 C0.7425 1.0209375 0.7425 1.0209375 1.5 2.0625 C7.41778844 9.01590142 13.25811407 13.23470955 22 16 C22.55628334 16.17778268 23.11256668 16.35556536 23.68570709 16.53873539 C26.89802908 17.1789873 30.06488703 17.12701157 33.32556152 17.10679626 C34.43513914 17.1059612 34.43513914 17.1059612 35.56713247 17.10510927 C38.0467414 17.10207232 40.52626992 17.09188839 43.00585938 17.08178711 C44.78318701 17.07823106 46.56051563 17.07514505 48.33784485 17.07249451 C52.1656156 17.06594251 55.99336304 17.05638245 59.82112122 17.04459953 C65.87142429 17.02632156 71.92172167 17.01671188 77.9720459 17.00868225 C95.17686445 16.98451857 112.38164842 16.94861813 129.58642578 16.90405273 C139.08806684 16.87951739 148.58969438 16.862148 158.09136248 16.85249335 C164.10823756 16.84594331 170.12500138 16.83036974 176.14183807 16.80817592 C179.88192271 16.7964609 183.62198012 16.7930794 187.36208153 16.79207802 C189.09874948 16.78992725 190.83541703 16.78432432 192.57206154 16.7750473 C194.93961614 16.76288767 197.30686216 16.76300894 199.67443848 16.76622009 C200.70926117 16.75645839 200.70926117 16.75645839 201.76498938 16.74649948 C205.35094921 16.76547485 207.94682469 17.0491133 211 19 C200.80105825 20.96640048 190.87649541 21.27278978 180.54248047 21.21459961 C178.82444341 21.21235331 177.1064051 21.21093257 175.3883667 21.21026611 C170.76037932 21.20549702 166.13254035 21.18746107 161.50460577 21.16551661 C158.60670309 21.15229592 155.70880332 21.14182418 152.81088638 21.13226509 C142.68326013 21.09857128 132.55575411 21.05341501 122.42822266 20.99829102 C113.01407201 20.94737923 103.60009497 20.92277016 94.18582237 20.91010088 C86.07578922 20.89794039 77.96597141 20.86666034 69.85605919 20.8208161 C65.02402901 20.79386013 60.19227665 20.77461462 55.36016464 20.77497673 C50.81747438 20.77471465 46.27551443 20.75055214 41.7330246 20.70852661 C40.07351158 20.69715594 38.41391578 20.69410223 36.75437546 20.70031929 C25.762795 20.73504786 16.89601006 19.62447002 7.95703125 12.61328125 C7.24933594 11.85402344 6.54164063 11.09476562 5.8125 10.3125 C5.07644531 9.54550781 4.34039062 8.77851563 3.58203125 7.98828125 C2 6 2 6 2 4 C1.34 4 0.68 4 0 4 C0 2.68 0 1.36 0 0 Z " fill="#0B3A5E" transform="translate(188,396)"/>
<path d="M0 0 C1.07882446 0.00290039 1.07882446 0.00290039 2.17944336 0.00585938 C11.98252247 0.08036816 21.77438625 0.61148936 31.5625 1.125 C31.89093677 7.0245516 30.74385906 11.72444106 28.95703125 17.32421875 C28.68183151 18.2150264 28.40663177 19.10583405 28.12309265 20.02363586 C27.52754647 21.94798314 26.92760411 23.87097428 26.32373047 25.79272461 C24.69254833 30.98471944 23.09344863 36.18663543 21.48828125 41.38671875 C21.15792877 42.4534079 20.82757629 43.52009705 20.48721313 44.61911011 C17.24815584 55.0927531 14.14611074 65.60476279 11.0625 76.125 C4.39137652 98.84107991 -2.50769662 121.48670139 -9.4375 144.125 C-10.65994075 140.09611077 -9.81534175 138.10543171 -8.4375 134.125 C-8.334375 132.92875 -8.23125 131.7325 -8.125 130.5 C-7.74233488 126.81945733 -6.5773424 123.93132861 -5.0625 120.5625 C-2.47386546 114.70087927 -1.24686757 108.94409053 -0.2109375 102.66796875 C0.38482335 99.93890262 1.00261994 97.91138277 2.11328125 95.41015625 C3.65033724 91.92588646 4.05744376 88.87684633 4.5625 85.125 C5.2225 84.135 5.8825 83.145 6.5625 82.125 C6.95263716 80.1353005 7.29452649 78.13480131 7.5625 76.125 C8.2225 76.125 8.8825 76.125 9.5625 76.125 C9.645 75.0525 9.7275 73.98 9.8125 72.875 C10.26576177 69.15037067 11.25927246 65.85018782 12.5 62.3125 C14.19509727 57.47110709 15.24321362 52.80388767 16.05859375 47.75 C16.8288312 43.73760028 18.1458913 39.94984348 19.5625 36.125 C20.2225 36.125 20.8825 36.125 21.5625 36.125 C21.68753906 35.30257812 21.81257813 34.48015625 21.94140625 33.6328125 C22.63662663 29.7063477 23.534999 25.86717872 24.5 22 C24.75426758 20.94619141 24.75426758 20.94619141 25.01367188 19.87109375 C26.33132816 14.57040802 26.33132816 14.57040802 27.62890625 12.0703125 C29.02155069 9.41852039 29.02155069 9.41852039 29.5625 3.125 C9.2675 2.63 9.2675 2.63 -11.4375 2.125 C-11.7675 2.785 -12.0975 3.445 -12.4375 4.125 C-12.4375 3.135 -12.4375 2.145 -12.4375 1.125 C-8.27491067 0.11830853 -4.25881198 -0.02815411 0 0 Z " fill="#133E5F" transform="translate(223.4375,135.875)"/>
<path d="M0 0 C1.80356934 5.41070803 -0.58799192 10.95211997 -2.4375 16.1875 C-4.2077653 21.24031755 -5.16571728 26.41460773 -6.15625 31.66796875 C-7.02915799 35.11514704 -8.39982594 37.83715595 -10 41 C-10.56638934 43.06627222 -11.06591884 45.15194106 -11.5 47.25 C-13.02614923 54.22895325 -14.68731464 61.00707737 -17.5625 67.5625 C-18.98101288 70.95459601 -19.78058339 74.09921856 -20.47265625 77.69140625 C-21 80 -21 80 -21.9375 82.77734375 C-23.37711396 87.14381991 -24.38933039 91.59978409 -25.41210938 96.078125 C-26.18663116 99.31198489 -27.00221663 102.00440455 -28.5078125 104.99609375 C-30.28856283 108.58090266 -31.11631833 112.17645642 -31.9375 116.0625 C-33.39993618 122.66070175 -35.15163526 129.03766097 -37.265625 135.4609375 C-38.13892138 138.03979134 -38.13892138 138.03979134 -38 141 C-39.92747172 147.14442763 -42.38610292 153.11873156 -45 159 C-46.41056726 154.48881093 -45.10929011 150.99357165 -43.7734375 146.60546875 C-43.51851532 145.73921371 -43.26359314 144.87295868 -43.00094604 143.98045349 C-42.13502672 141.04659749 -41.25489664 138.11719176 -40.375 135.1875 C-39.75264597 133.08865586 -39.13125416 130.98952619 -38.51074219 128.89013672 C-37.126144 124.21176368 -35.73543307 119.53526057 -34.34082031 114.85986328 C-31.7928439 106.31598273 -29.26714044 97.7655513 -26.7421875 89.21484375 C-25.82511621 86.10975719 -24.90794947 83.00469883 -23.99072266 79.8996582 C-23.6488646 78.74234711 -23.6488646 78.74234711 -23.30010033 77.561656 C-21.74823578 72.30895212 -20.19401054 67.05695143 -18.63818359 61.80541992 C-18.42553926 61.08758615 -18.21289494 60.36975237 -17.99380684 59.63016605 C-17.14563592 56.76705199 -16.29744201 53.90394484 -15.44879532 51.04097176 C-13.00970051 42.81196209 -10.58120974 34.57997765 -8.16992188 26.34277344 C-7.70498569 24.75596855 -7.24004034 23.16916635 -6.77508545 21.58236694 C-5.88855396 18.55647536 -5.00453925 15.52986331 -4.12188721 12.50283813 C-3.72294815 11.1403753 -3.32392531 9.777937 -2.92480469 8.41552734 C-2.57633484 7.22196625 -2.22786499 6.02840515 -1.86883545 4.79867554 C-1 2 -1 2 0 0 Z " fill="#113B5F" transform="translate(210,141)"/>
<path d="M0 0 C1.31053848 0.03753891 1.31053848 0.03753891 2.64755249 0.07583618 C5.39830204 0.15705334 8.1482238 0.25401322 10.8984375 0.3515625 C12.77991569 0.40990291 14.66142642 0.46720374 16.54296875 0.5234375 C21.12025516 0.66248322 25.69687029 0.81563526 30.2734375 0.9765625 C30.2734375 1.3065625 30.2734375 1.6365625 30.2734375 1.9765625 C28.46540649 2.01414673 28.46540649 2.01414673 26.62084961 2.05249023 C22.12742396 2.14701915 17.63413659 2.24712689 13.14086914 2.34887695 C11.20014696 2.39205442 9.25939098 2.43374081 7.31860352 2.47387695 C4.52089273 2.53199816 1.72334936 2.59556966 -1.07421875 2.66015625 C-1.9349147 2.67686874 -2.79561066 2.69358124 -3.68238831 2.71080017 C-12.64147265 2.70664813 -12.64147265 2.70664813 -20.7265625 5.9765625 C-22.36118516 6.44359755 -23.99658819 6.90816042 -25.63671875 7.35546875 C-36.04789366 10.44963101 -43.09120168 14.76476918 -50.03125 23.05859375 C-51.5691629 24.79849061 -53.10237849 26.22108805 -54.9140625 27.6640625 C-62.83634675 34.17794066 -66.60332587 43.26231132 -68.953125 53.04296875 C-69.7265625 55.9765625 -69.7265625 55.9765625 -71.24291992 59.62060547 C-73.61142585 66.72634645 -73.20878825 74.20040992 -73.23828125 81.60546875 C-73.25515184 83.20687719 -73.27330524 84.80827259 -73.29267883 86.40965271 C-73.33992697 90.59672974 -73.36989841 94.78375384 -73.39611816 98.9710083 C-73.42605172 103.25486703 -73.47253767 107.53854381 -73.51757812 111.82226562 C-73.60332419 120.20694131 -73.67079605 128.59163404 -73.7265625 136.9765625 C-74.0565625 136.9765625 -74.3865625 136.9765625 -74.7265625 136.9765625 C-74.95214898 128.42178397 -75.15324852 119.8668972 -75.32496262 111.31088448 C-75.40546716 107.33594347 -75.4937134 103.36152054 -75.60107422 99.38720703 C-76.67744611 59.04046736 -76.67744611 59.04046736 -68.0390625 42.0390625 C-67.52641846 40.99588867 -67.52641846 40.99588867 -67.00341797 39.93164062 C-63.74143955 33.55252923 -59.70393712 28.13735796 -54.7265625 22.9765625 C-53.96730469 22.18894531 -53.20804688 21.40132812 -52.42578125 20.58984375 C-38.39640364 7.06561558 -19.50475328 -0.76272639 0 0 Z " fill="#104066" transform="translate(75.7265625,0.0234375)"/>
<path d="M0 0 C2.00750293 6.02250879 -1.15772874 12.70774063 -3.15625 18.5234375 C-6.28022066 27.69286989 -8.84780158 36.99683845 -11.24951172 46.37646484 C-12.10574408 49.70209078 -12.98481602 52.95563685 -14.09765625 56.20703125 C-15.02620798 59.08111994 -15.44439148 61.75659004 -15.8125 64.75 C-16.45741761 68.89372259 -17.34943025 72.08291347 -19.375 75.75 C-26.52107277 89.06671721 -28.66606038 106.45168581 -24.64208984 121.08496094 C-23.6014749 124.18860489 -22.1754071 126.99760691 -20.625 129.875 C-20.03976563 130.98617187 -19.45453125 132.09734375 -18.8515625 133.2421875 C-17.02121031 135.96840828 -16.04550736 136.94010977 -13 138 C-13.495 139.98 -13.495 139.98 -14 142 C-24.36727238 131.58127713 -28.6914907 120.47123095 -29.375 105.875 C-28.80384712 88.61542455 -21.63532651 71.1618857 -16.73095703 54.72119141 C-15.72716846 51.35231197 -14.7291238 47.98173211 -13.73046875 44.61132812 C-11.83755031 38.22623657 -9.93672319 31.84353829 -8.03234863 25.46185303 C-7.06197149 22.20781371 -6.09458327 18.95290091 -5.12792969 15.69775391 C-4.58280961 13.8674751 -4.03757175 12.03723136 -3.4921875 10.20703125 C-3.24945099 9.38772629 -3.00671448 8.56842133 -2.75662231 7.72428894 C-1.11423527 2.22847054 -1.11423527 2.22847054 0 0 Z " fill="#113A5E" transform="translate(163,301)"/>
<path d="M0 0 C1.88482401 3.23882004 2.38465931 5.96901354 2.6875 9.6875 C2.77386719 10.66074219 2.86023438 11.63398438 2.94921875 12.63671875 C2.96597656 13.41660156 2.98273438 14.19648438 3 15 C1.26081117 16.73918883 -0.99351306 16.12240946 -3.31135803 16.12908131 C-4.07885296 16.12616847 -4.84634788 16.12325563 -5.63710022 16.12025452 C-6.44649801 16.12110894 -7.2558958 16.12196337 -8.0898208 16.12284368 C-10.82300472 16.12450096 -13.55612831 16.11897309 -16.28930664 16.11352539 C-18.24016824 16.11324355 -20.19102994 16.1134012 -22.14189148 16.1139679 C-27.45572159 16.11425598 -32.76952934 16.10835754 -38.08335423 16.10139394 C-43.63006685 16.09516216 -49.17677991 16.09455674 -54.72349548 16.09336853 C-65.23492625 16.09025469 -75.74634666 16.0820406 -86.25777286 16.07201904 C-98.22129135 16.06085953 -110.18481032 16.05534786 -122.14833272 16.05032361 C-146.76556089 16.03985803 -171.38277987 16.02225758 -196 16 C-196 15.67 -196 15.34 -196 15 C-130.99 14.67 -65.98 14.34 1 14 C0.67 12.02 0.34 10.04 0 8 C-0.11196073 5.32189925 -0.04625299 2.68267314 0 0 Z " fill="#093154" transform="translate(373,440)"/>
<path d="M0 0 C0.66 0 1.32 0 2 0 C-0.01932853 8.48344853 -2.3739786 16.84308256 -4.89884758 25.18784332 C-5.54569007 27.32627717 -6.18875734 29.46581667 -6.83094788 31.60565186 C-8.65497762 37.6808367 -10.48616688 43.75385925 -12.31811523 49.82666016 C-13.44642128 53.56785003 -14.57102482 57.31013866 -15.69366646 61.05303192 C-16.31772164 63.1295158 -16.94599423 65.2046901 -17.57444763 67.27984619 C-23.41245954 86.32711996 -23.41245954 86.32711996 -26 106 C-26.33 106 -26.66 106 -27 106 C-27.05447822 103.47886908 -27.09389852 100.9589415 -27.125 98.4375 C-27.15013672 97.38079102 -27.15013672 97.38079102 -27.17578125 96.30273438 C-27.21989988 91.51586286 -26.48839507 87.59651419 -25 83 C-24.60825846 81.35807097 -24.23042167 79.71267205 -23.875 78.0625 C-23.70742187 77.29035156 -23.53984375 76.51820313 -23.3671875 75.72265625 C-23.24601563 75.15417969 -23.12484375 74.58570313 -23 74 C-22.34 74 -21.68 74 -21 74 C-20.87882813 72.90300781 -20.75765625 71.80601562 -20.6328125 70.67578125 C-20.46390637 69.22131177 -20.29461519 67.76688696 -20.125 66.3125 C-20.04636719 65.59126953 -19.96773437 64.87003906 -19.88671875 64.12695312 C-19.4103949 60.11484068 -18.73699858 56.70024488 -17 53 C-16.34 53 -15.68 53 -15 53 C-13.28395391 45.34379435 -11.63728368 37.67340287 -10 30 C-9.34 30 -8.68 30 -8 30 C-7.96261719 29.43152344 -7.92523438 28.86304688 -7.88671875 28.27734375 C-7.50653755 23.81207834 -6.86200201 20.25453388 -4.8984375 16.171875 C-2.75405083 10.98805331 -1.4764636 5.40370687 0 0 Z " fill="#113C5F" transform="translate(211,282)"/>
<path d="M0 0 C2.0625 0.4375 2.0625 0.4375 4 1 C-3.4384619 6.50595606 -11.01699168 11.73073715 -18.75 16.8125 C-26.30773276 21.81069299 -33.74997898 26.89877984 -41.01342773 32.31494141 C-56.70382722 44 -56.70382722 44 -60 44 C-59 41 -59 41 -57.07421875 39.75390625 C-55.89279297 39.16416016 -55.89279297 39.16416016 -54.6875 38.5625 C-51.18019022 36.72824925 -48.75387807 34.85979646 -46 32 C-45.01 32 -44.02 32 -43 32 C-43 31.34 -43 30.68 -43 30 C-41.34467377 28.98133771 -39.67739862 27.98189187 -38 27 C-37.67 26.34 -37.34 25.68 -37 25 C-35.35443434 23.96564444 -33.6829392 22.97236487 -32 22 C-30.96875 21.278125 -29.9375 20.55625 -28.875 19.8125 C-26 18 -26 18 -23 18 C-22.34 16.68 -21.68 15.36 -21 14 C-20.01 14 -19.02 14 -18 14 C-18 13.34 -18 12.68 -18 12 C-17.4225 11.731875 -16.845 11.46375 -16.25 11.1875 C-13.95338027 9.97539514 -12.07286488 8.56123217 -10 7 C-8.44396721 5.94869717 -6.88135379 4.90707241 -5.3125 3.875 C-2.51504182 2.11346037 -2.51504182 2.11346037 0 0 Z " fill="#103D60" transform="translate(489,286)"/>
<path d="M0 0 C0.33 0 0.66 0 1 0 C1.24633417 4.81474863 1.4601368 9.62959648 1.64697266 14.44702148 C1.71441373 16.07727372 1.7899466 17.70721621 1.87451172 19.33666992 C2.62543238 33.98867015 1.42057872 48.28718383 -5.75 61.4375 C-6.08999023 62.08871826 -6.42998047 62.73993652 -6.78027344 63.41088867 C-10.65247691 70.59082152 -15.258445 77.27196253 -22 82 C-21.67 80.35 -21.34 78.7 -21 77 C-19.515 76.505 -19.515 76.505 -18 76 C-18 75.01 -18 74.02 -18 73 C-16.35570171 71.31126121 -14.68615782 69.64694485 -13 68 C-12.443125 67.071875 -11.88625 66.14375 -11.3125 65.1875 C-10.879375 64.465625 -10.44625 63.74375 -10 63 C-9.34 63 -8.68 63 -8 63 C-7.87625 62.319375 -7.7525 61.63875 -7.625 60.9375 C-6.90899123 57.5722588 -5.97054875 54.29986575 -5 51 C-4.34 51 -3.68 51 -3 51 C-2.93941406 50.21753906 -2.87882813 49.43507813 -2.81640625 48.62890625 C-2.69072266 47.11103516 -2.69072266 47.11103516 -2.5625 45.5625 C-2.44068359 44.04849609 -2.44068359 44.04849609 -2.31640625 42.50390625 C-2 40 -2 40 -1 39 C-0.83976438 36.11747355 -0.74045971 33.25621473 -0.68359375 30.37109375 C-0.66281265 29.50686295 -0.64203156 28.64263214 -0.62062073 27.75221252 C-0.55502886 24.98072555 -0.49619582 22.20914079 -0.4375 19.4375 C-0.39432392 17.56314077 -0.35070994 15.68879157 -0.30664062 13.81445312 C-0.19933773 9.20973664 -0.09809785 4.60492142 0 0 Z " fill="#113F66" transform="translate(612,511)"/>
<path d="M0 0 C4.30764815 1.56641751 8.06171464 3.68336156 12 6 C12 6.66 12 7.32 12 8 C13.2375 8.144375 14.475 8.28875 15.75 8.4375 C17.84982962 8.68248012 19.83241411 8.95439196 21.87356949 9.50988674 C24.04141683 10.00954601 25.94197377 10.13807489 28.16351318 10.15821838 C28.98518478 10.1680072 29.80685638 10.17779602 30.65342712 10.18788147 C31.54606766 10.19363693 32.43870819 10.1993924 33.35839844 10.20532227 C34.30507889 10.21522186 35.25175934 10.22512146 36.22712708 10.23532104 C39.35451766 10.26689454 42.48192343 10.29167714 45.609375 10.31640625 C47.77842604 10.33697935 49.94747311 10.35797592 52.11651611 10.37937927 C57.82436908 10.4345631 63.53225801 10.48398869 69.24017334 10.53222656 C75.06509602 10.58246848 80.8899665 10.63814051 86.71484375 10.69335938 C98.14318457 10.80089585 109.57157072 10.90235088 121 11 C121 11.33 121 11.66 121 12 C108.72527377 12.22431443 96.4503997 12.42564895 84.1748333 12.59840012 C78.47356198 12.67933891 72.77263122 12.76791439 67.07177734 12.87451172 C61.56060308 12.97727186 56.04946169 13.05922817 50.53775406 13.12732697 C48.44472893 13.15673501 46.35179149 13.19338714 44.25902939 13.2377243 C28.2086679 13.57074605 13.71199228 13.24415875 1 2 C0.67 1.34 0.34 0.68 0 0 Z " fill="#0A3D69" transform="translate(150,443)"/>
<path d="M0 0 C0.66 0.66 1.32 1.32 2 2 C-1.625 5 -1.625 5 -5 5 C-5 5.66 -5 6.32 -5 7 C-5.99 7 -6.98 7 -8 7 C-8.08507812 7.89138672 -8.08507812 7.89138672 -8.171875 8.80078125 C-9.37712785 12.00152348 -11.26164633 12.63339629 -14.25 14.1875 C-15.20390625 14.69667969 -16.1578125 15.20585937 -17.140625 15.73046875 C-19.80321476 16.9126295 -22.13132004 17.56551015 -25 18 C-25.33 18.99 -25.66 19.98 -26 21 C-27.97300116 22.05226728 -29.97676387 23.04788888 -32 24 C-34.2374877 25.5538109 -36.07260943 27.07260943 -38 29 C-39.32 29 -40.64 29 -42 29 C-42 29.66 -42 30.32 -42 31 C-42.99 31 -43.98 31 -45 31 C-45.495 32.485 -45.495 32.485 -46 34 C-48.97 34.495 -48.97 34.495 -52 35 C-49.1508042 31.96349403 -46.25596664 29.71559674 -42.73828125 27.49609375 C-41.70936768 26.84286133 -40.6804541 26.18962891 -39.62036133 25.51660156 C-38.52876709 24.83049805 -37.43717285 24.14439453 -36.3125 23.4375 C-35.18411994 22.72291306 -34.05611124 22.0077394 -32.9284668 21.29199219 C-30.67608931 19.86262561 -28.42244323 18.43534374 -26.16796875 17.00927734 C-21.86655507 14.281115 -17.58632236 11.521121 -13.3125 8.75 C-12.31827026 8.10695923 -12.31827026 8.10695923 -11.30395508 7.45092773 C-7.51559648 4.99708776 -3.75025743 2.51169315 0 0 Z " fill="#103C63" transform="translate(427,469)"/>
<path d="M0 0 C0.495 1.485 0.495 1.485 1 3 C-2.75 6 -2.75 6 -5 6 C-5.3403125 6.8971875 -5.3403125 6.8971875 -5.6875 7.8125 C-7.87192553 11.45320921 -11.07594205 12.69198068 -15 14 C-16.00803174 14.99190323 -17.00760424 15.99245315 -18 17 C-23.60751275 20.40594885 -29.90588887 22.63393402 -36 25 C-37.16015625 25.53367187 -37.16015625 25.53367187 -38.34375 26.078125 C-41.69643682 27.24170454 -44.77423652 27.4265927 -48.3125 27.625 C-49.56675781 27.69976562 -50.82101562 27.77453125 -52.11328125 27.8515625 C-53.54220703 27.92503906 -53.54220703 27.92503906 -55 28 C-52.3106771 26.56909149 -49.7780081 25.57179498 -46.83203125 24.80859375 C-28.62949729 19.87500878 -14.36095409 12.17608627 0 0 Z " fill="#103C61" transform="translate(457,385)"/>
<path d="M0 0 C0.33 0 0.66 0 1 0 C1.12117187 1.16917969 1.24234375 2.33835937 1.3671875 3.54296875 C1.53608401 5.09118671 1.70537568 6.63936161 1.875 8.1875 C1.95363281 8.95642578 2.03226562 9.72535156 2.11328125 10.51757812 C2.57973307 14.69770405 3.28784779 18.12546297 5 22 C5.28875 23.10085938 5.5775 24.20171875 5.875 25.3359375 C7.1371798 29.44678699 8.9057504 32.89177246 11 36.625 C13.24141664 40.66929524 15.39958657 44.64887599 17 49 C13.10364094 45.41534967 10.39936395 41.77050071 7.9375 37.0625 C7.42207642 36.08385986 7.42207642 36.08385986 6.89624023 35.08544922 C1.5482217 24.55181935 -2.72723843 11.81803318 0 0 Z " fill="#113D63" transform="translate(1,537)"/>
<path d="M0 0 C0.66 0 1.32 0 2 0 C1.44858675 4.59511038 0.45860603 8.62418191 -1 13 C-1.165 14.19625 -1.33 15.3925 -1.5 16.625 C-1.96182461 19.74231613 -2.59623373 21.27988147 -4 24 C-5.70989263 28.5733492 -7.22088844 33.1695083 -8 38 C-8.66 37.67 -9.32 37.34 -10 37 C-9.39867998 32.05920005 -8.38970938 27.53242656 -6.93359375 22.75390625 C-6.73524429 22.09792953 -6.53689484 21.44195282 -6.33253479 20.76609802 C-5.7056326 18.69674499 -5.07170173 16.62962613 -4.4375 14.5625 C-4.00799454 13.14923099 -3.5789537 11.73582069 -3.15039062 10.32226562 C-2.10562232 6.87986191 -1.05454463 3.43942319 0 0 Z " fill="#0F3C60" transform="translate(290,113)"/>
<path d="M0 0 C8.31680016 2.03384436 16.1553832 5.28161416 23.40234375 9.83203125 C21.40234375 10.83203125 21.40234375 10.83203125 18.33984375 10.01953125 C15.40234375 8.83203125 15.40234375 8.83203125 14.40234375 6.83203125 C11.81629043 6.36370475 11.81629043 6.36370475 8.83984375 6.20703125 C7.82792969 6.13226562 6.81601562 6.0575 5.7734375 5.98046875 C4.59974609 5.90699219 4.59974609 5.90699219 3.40234375 5.83203125 C3.07234375 4.51203125 2.74234375 3.19203125 2.40234375 1.83203125 C-4.52765625 1.33703125 -4.52765625 1.33703125 -11.59765625 0.83203125 C-7.36829116 -1.98754547 -4.83988893 -0.90931247 0 0 Z " fill="#124064" transform="translate(554.59765625,1.16796875)"/>
<path d="M0 0 C0.7425 1.0209375 0.7425 1.0209375 1.5 2.0625 C8.40381967 10.17448811 15.61926643 14.57147976 26 17 C26 17.66 26 18.32 26 19 C22.33275861 20.35063902 20.33190931 19.67902489 16.8125 18.125 C10.77445174 15.24394203 6.16013978 11.22842259 2 6 C2 5.34 2 4.68 2 4 C1.34 4 0.68 4 0 4 C0 2.68 0 1.36 0 0 Z " fill="#103C60" transform="translate(188,396)"/>
<path d="M0 0 C4.30764815 1.56641751 8.06171464 3.68336156 12 6 C12 6.66 12 7.32 12 8 C13.11375 8.12375 14.2275 8.2475 15.375 8.375 C20.30460991 8.98457542 25.14244255 9.97473685 30 11 C27 13 27 13 24.8359375 12.8984375 C15.31211971 10.87273657 7.35873024 7.51658672 0 1 C0 0.67 0 0.34 0 0 Z " fill="#113A5D" transform="translate(150,443)"/>
<path d="M0 0 C3.22540429 0.27626527 4.71307274 1.15651476 7.37231445 2.97192383 C8.63398438 3.83140625 8.63398438 3.83140625 9.92114258 4.70825195 C10.78545898 5.31475586 11.64977539 5.92125977 12.5402832 6.54614258 C13.42393555 7.14104492 14.30758789 7.73594727 15.21801758 8.34887695 C20.05267276 11.69020235 20.05267276 11.69020235 21.7277832 13.23364258 C21.7277832 14.22364258 21.7277832 15.21364258 21.7277832 16.23364258 C21.3977832 15.57364258 21.0677832 14.91364258 20.7277832 14.23364258 C19.7996582 13.94489258 18.8715332 13.65614258 17.9152832 13.35864258 C14.39814345 12.11729914 13.28671737 10.86783952 10.7277832 8.23364258 C5.8117047 4.42218289 5.8117047 4.42218289 -0.0847168 3.23364258 C-2.3634806 4.27536317 -3.68363474 5.3106222 -5.2722168 7.23364258 C-3.06416336 0.31507514 -3.06416336 0.31507514 0 0 Z " fill="#113A5B" transform="translate(479.272216796875,357.766357421875)"/>
<path d="M0 0 C2.41342912 3.04930265 4.26280366 6.21547144 6.125 9.625 C9.68802109 15.83549073 14.01499421 20.89065166 19 26 C18.34 26.33 17.68 26.66 17 27 C12.70245485 23.67916965 9.84422866 20.70768882 7 16 C6.505 15.195625 6.01 14.39125 5.5 13.5625 C5.005 12.716875 4.51 11.87125 4 11 C3.64550781 10.43023437 3.29101562 9.86046875 2.92578125 9.2734375 C0.83019616 5.81756033 0 4.13741315 0 0 Z " fill="#0F385B" transform="translate(113,436)"/>
<path d="M0 0 C4 0 4 0 5.375 1.3125 C5.91125 1.869375 6.4475 2.42625 7 3 C8.98246398 4.03432904 10.98413316 5.03238392 13 6 C17.84615385 8.69230769 17.84615385 8.69230769 19 11 C19.99 11.33 20.98 11.66 22 12 C22 12.66 22 13.32 22 14 C22.99 14.33 23.98 14.66 25 15 C24.01 15.495 24.01 15.495 23 16 C20.76928711 14.86010742 20.76928711 14.86010742 18.02734375 13.10546875 C16.55491211 12.16670898 16.55491211 12.16670898 15.05273438 11.20898438 C14.02470703 10.54189453 12.99667969 9.87480469 11.9375 9.1875 C10.90560547 8.53201172 9.87371094 7.87652344 8.81054688 7.20117188 C1.13563105 2.27126211 1.13563105 2.27126211 0 0 Z " fill="#0F395E" transform="translate(394,446)"/>
<path d="M0 0 C-7.2281935 4.81879567 -16.44554502 6.42003695 -25 7 C-25.33 6.34 -25.66 5.68 -26 5 C-25.40832031 4.96261719 -24.81664062 4.92523437 -24.20703125 4.88671875 C-19.26448325 4.47551166 -16.21370182 3.73321199 -12 1 C-7.96015276 0.05450384 -4.13943163 -0.0985579 0 0 Z " fill="#144167" transform="translate(569,607)"/>
<path d="M0 0 C1.32 0 2.64 0 4 0 C7.8461818 6.98592204 7.09393147 14.34247972 6 22 C5.67 22 5.34 22 5 22 C4.34 15.4 3.68 8.8 3 2 C1.68 2.33 0.36 2.66 -1 3 C-0.67 2.01 -0.34 1.02 0 0 Z " fill="#0F3E64" transform="translate(494,283)"/>
<path d="M0 0 C0.33 0.66 0.66 1.32 1 2 C0.0625 4.125 0.0625 4.125 -1 6 C-1.66 6 -2.32 6 -3 6 C-3.185625 6.825 -3.37125 7.65 -3.5625 8.5 C-5.48868121 13.18983252 -8.54042105 16.35541683 -12 20 C-12.99 19.67 -13.98 19.34 -15 19 C-14.33613281 18.21496094 -13.67226563 17.42992187 -12.98828125 16.62109375 C-8.43933591 11.21739384 -3.98350567 5.84247498 0 0 Z " fill="#0F3B5F" transform="translate(473,365)"/>
<path d="M0 0 C0 0.66 0 1.32 0 2 C-5.47246202 6.55290898 -11.56378052 10.02026876 -18 13 C-18.33 12.34 -18.66 11.68 -19 11 C-18.01 11 -17.02 11 -16 11 C-15.67 10.01 -15.34 9.02 -15 8 C-13.35 7.67 -11.7 7.34 -10 7 C-9.67 6.01 -9.34 5.02 -9 4 C-7.35 3.67 -5.7 3.34 -4 3 C-4 2.34 -4 1.68 -4 1 C-2 0 -2 0 0 0 Z " fill="#154067" transform="translate(588,594)"/>
<path d="M0 0 C4.62368493 1.45291393 7.71950663 4.11705814 11.1875 7.375 C11.98704102 8.09816406 11.98704102 8.09816406 12.80273438 8.8359375 C15.50503178 11.33768704 17.66118914 13.53387617 19 17 C18.34 17 17.68 17 17 17 C15.484375 15.42578125 15.484375 15.42578125 13.75 13.3125 C9.77755347 8.6463206 5.75309652 4.43400237 0 2 C0 1.34 0 0.68 0 0 Z " fill="#143E60" transform="translate(578,12)"/>
</svg>
